{"images":[],"accessors":[{"componentType":5126,"bufferView":0,"count":1,"type":"SCALAR","byteOffset":0},{"componentType":5123,"bufferView":1,"count":44418,"type":"SCALAR","byteOffset":0},{"componentType":5123,"bufferView":1,"count":5520,"type":"SCALAR","byteOffset":88836},{"componentType":5126,"max":[0.03852777183055878,0.1111329048871994,0.012078089639544487],"bufferView":2,"count":8226,"type":"VEC3","min":[-0.03852777183055878,-0.00024868009495548904,-0.007959416136145592],"byteOffset":0},{"componentType":5126,"bufferView":2,"count":8226,"type":"VEC3","byteOffset":12},{"componentType":5126,"bufferView":2,"count":8226,"type":"VEC4","byteOffset":24},{"componentType":5126,"bufferView":2,"count":8226,"type":"VEC2","byteOffset":40},{"componentType":5126,"max":[0.002889104187488556,0.10501497238874435,0.007189978379756212],"bufferView":3,"count":964,"type":"VEC3","min":[-0.002889082068577409,0.10320579260587692,0.005275198258459568],"byteOffset":0},{"componentType":5126,"bufferView":3,"count":964,"type":"VEC3","byteOffset":12},{"componentType":5126,"bufferView":3,"count":964,"type":"VEC4","byteOffset":24},{"componentType":5126,"bufferView":3,"count":964,"type":"VEC2","byteOffset":40}],"textures":[],"buffers":[{"byteLength":541000,"uri":"buffer.bin"}],"bufferViews":[{"byteLength":4,"byteOffset":0,"buffer":0},{"byteLength":99876,"target":34963,"byteOffset":4,"buffer":0},{"byteLength":394848,"byteStride":48,"target":34962,"byteOffset":99880,"buffer":0},{"byteLength":46272,"byteStride":48,"target":34962,"byteOffset":494728,"buffer":0}],"samplers":[],"scene":0,"nodes":[{"children":[1,2],"name":"RootNode"},{"name":"VM_Basemesh_Male","mesh":0},{"name":"Eyes_Male","mesh":1},{"children":[0],"name":"Pivot","translation":[0,0.00024868009495548904,-0.0020593367516994476]}],"materials":[{"pbrMetallicRoughness":{"roughnessFactor":0.800000011920929,"baseColorFactor":[0.400000005960464,0.400000005960464,0.400000005960464,1],"metallicFactor":0.200000002980232},"extensions":{"KHR_materials_specular":{"specularFactor":0.3}},"name":"VM_Basemesh_Male_lambert"},{"pbrMetallicRoughness":{"roughnessFactor":0.800000011920929,"baseColorFactor":[0.400000005960464,0.400000005960464,0.400000005960464,1],"metallicFactor":0.200000002980232},"extensions":{"KHR_materials_specular":{"specularFactor":0.3}},"name":"Eyes_Male_shadow_lambert"}],"animations":[{"samplers":[],"channels":[],"name":"Take 001"}],"scenes":[{"nodes":[3],"name":"Root Scene"}],"asset":{"generator":"CG美术之家","source":"https://www.cgmszj.com/model/100856.html","version":"2.0"},"meshes":[{"primitives":[{"mode":4,"indices":1,"material":0,"attributes":{"COLOR_0":5,"POSITION":3,"TEXCOORD_0":6,"NORMAL":4}}],"name":"VM_Basemesh_Male"},{"primitives":[{"mode":4,"indices":2,"material":1,"attributes":{"COLOR_0":9,"POSITION":7,"TEXCOORD_0":10,"NORMAL":8}}],"name":"Eyes_Male"}]}